<?xml version="1.0" encoding="utf-8"?>
<!-- Generator: Adobe Illustrator 25.2.1, SVG Export Plug-In . SVG Version: 6.00 Build 0)  -->
<svg version="1.1" id="Layer_1" xmlns="http://www.w3.org/2000/svg" xmlns:xlink="http://www.w3.org/1999/xlink" x="0px" y="0px"
	 viewBox="0 0 50 50" style="enable-background:new 0 0 50 50;" xml:space="preserve">
<style type="text/css">
	.st0{fill:#010101;}
</style>
<g>
	<path class="st0" d="M16.4,24.14h17.09c0.26,0,0.48,0.21,0.48,0.48l0,0c0,0.26-0.21,0.48-0.48,0.48H16.4
		c-0.26,0-0.48-0.21-0.48-0.48l0,0C15.92,24.36,16.13,24.14,16.4,24.14z"/>
	<path class="st0" d="M25.42,16.08v17.09c0,0.26-0.21,0.48-0.48,0.48l0,0c-0.26,0-0.48-0.21-0.48-0.48V16.08
		c0-0.26,0.21-0.48,0.48-0.48l0,0C25.2,15.6,25.42,15.81,25.42,16.08z"/>
</g>
</svg>
