<svg id="Layer_1" data-name="Layer 1" xmlns="http://www.w3.org/2000/svg" viewBox="0 0 20.64 17.2"><defs><style>.cls-1{fill:#61c195;stroke:#61c195;stroke-miterlimit:10;stroke-width:0.5px;}</style></defs><path class="cls-1" d="M4.63,20.35a2.71,2.71,0,0,1-2.7-2.7V8.81a2.71,2.71,0,0,1,2.7-2.7H7.25L8.11,4a.48.48,0,0,1,.45-.32h6.88a.48.48,0,0,1,.45.32l.86,2.14h2.62a2.71,2.71,0,0,1,2.7,2.7v8.84a2.71,2.71,0,0,1-2.7,2.7Zm0-1H19.37a1.71,1.71,0,0,0,1.72-1.72V8.81a1.71,1.71,0,0,0-1.72-1.72H16.42A.48.48,0,0,1,16,6.78l-.86-2.15H8.89L8,6.78a.48.48,0,0,1-.45.31H4.63A1.71,1.71,0,0,0,2.91,8.81v8.84A1.71,1.71,0,0,0,4.63,19.37ZM12,17.89a4.67,4.67,0,1,1,4.67-4.66A4.67,4.67,0,0,1,12,17.89Zm0-1a3.69,3.69,0,1,0-3.68-3.68A3.67,3.67,0,0,0,12,16.91Z" transform="translate(-1.68 -3.4)"/></svg>