<?xml version="1.0" encoding="utf-8"?>
<!-- Generator: Adobe Illustrator 25.2.1, SVG Export Plug-In . SVG Version: 6.00 Build 0)  -->
<svg version="1.1" id="Layer_1" xmlns="http://www.w3.org/2000/svg" xmlns:xlink="http://www.w3.org/1999/xlink" x="0px" y="0px"
	 viewBox="0 0 50 50" style="enable-background:new 0 0 50 50;" xml:space="preserve">
<style type="text/css">
	.st0{fill:#010101;}
</style>
<g>
	<path class="st0" d="M27.9,33.3c1.66,0,2.99-1.29,3.06-2.95l0.35-10.8h1.64c0.24,0,0.44-0.2,0.44-0.44c0-0.24-0.2-0.44-0.44-0.44
		h-4.59v-0.98c0-0.96-0.79-1.75-1.75-1.75h-3.32c-0.96,0-1.75,0.79-1.75,1.75v0.98h-4.61c-0.24,0-0.44,0.2-0.44,0.44
		c0,0.24,0.2,0.44,0.44,0.44h1.64l0.35,10.8c0.07,1.66,1.4,2.95,3.06,2.95H27.9z M22.41,17.69c0-0.48,0.39-0.87,0.87-0.87h3.32
		c0.48,0,0.87,0.39,0.87,0.87v0.98h-5.07V17.69z M19.81,30.31l-0.35-10.78h11l-0.37,10.78c-0.04,1.18-1.01,2.12-2.19,2.12H22
		C20.82,32.43,19.86,31.51,19.81,30.31z"/>
	<path class="st0" d="M24.95,29.63c0.24,0,0.44-0.2,0.44-0.44v-6.54c0-0.24-0.2-0.44-0.44-0.44c-0.24,0-0.44,0.2-0.44,0.44v6.54
		C24.51,29.43,24.71,29.63,24.95,29.63z"/>
	<path class="st0" d="M22.33,29.63c0.24,0,0.44-0.2,0.44-0.44v-6.54c0-0.24-0.2-0.44-0.44-0.44s-0.44,0.2-0.44,0.44v6.54
		C21.89,29.43,22.09,29.63,22.33,29.63z"/>
	<path class="st0" d="M27.57,29.63c0.24,0,0.44-0.2,0.44-0.44v-6.54c0-0.24-0.2-0.44-0.44-0.44s-0.44,0.2-0.44,0.44v6.54
		C27.14,29.43,27.33,29.63,27.57,29.63z"/>
</g>
</svg>
