<?xml version="1.0" encoding="utf-8"?>
<!-- Generator: Adobe Illustrator 25.2.1, SVG Export Plug-In . SVG Version: 6.00 Build 0)  -->
<svg version="1.1" id="Layer_1" xmlns="http://www.w3.org/2000/svg" xmlns:xlink="http://www.w3.org/1999/xlink" x="0px" y="0px"
	 viewBox="0 0 50 50" style="enable-background:new 0 0 50 50;" xml:space="preserve">
<style type="text/css">
	.st0{fill:#010101;}
</style>
<path class="st0" d="M29.73,16.45l-5.8,5.8c-0.07,0.07-0.12,0.17-0.13,0.27l-0.34,2.36c-0.02,0.15,0.03,0.3,0.13,0.4
	c0.11,0.11,0.26,0.16,0.4,0.13l2.36-0.34c0.1-0.01,0.2-0.06,0.27-0.13l5.8-5.8c0.73-0.75,0.73-1.95,0-2.7
	C31.67,15.73,30.48,15.73,29.73,16.45z M31.75,18.48l-5.69,5.69l-1.57,0.22l0.22-1.57l5.69-5.69c0.38-0.36,0.97-0.36,1.35,0
	C32.12,17.5,32.12,18.1,31.75,18.48z"/>
<path class="st0" d="M20.11,30.19h9.05c0.79,0,1.43-0.64,1.43-1.43v-5.24c0-0.26-0.21-0.48-0.48-0.48s-0.48,0.21-0.48,0.48v5.24
	c0,0.26-0.21,0.48-0.48,0.48h-9.05c-0.26,0-0.48-0.21-0.48-0.48v-9.05c0-0.26,0.21-0.48,0.48-0.48h5.24c0.26,0,0.48-0.21,0.48-0.48
	s-0.21-0.48-0.48-0.48h-5.24c-0.79,0-1.43,0.64-1.43,1.43v9.05C18.68,29.55,19.32,30.19,20.11,30.19z"/>
</svg>
