<?xml version="1.0" encoding="utf-8"?>
<!-- Generator: Adobe Illustrator 25.2.1, SVG Export Plug-In . SVG Version: 6.00 Build 0)  -->
<svg version="1.1" id="Layer_1" xmlns="http://www.w3.org/2000/svg" xmlns:xlink="http://www.w3.org/1999/xlink" x="0px" y="0px"
	 viewBox="0 0 50 50" style="enable-background:new 0 0 50 50;" xml:space="preserve">
<style type="text/css">
	.st0{fill-rule:evenodd;clip-rule:evenodd;fill:#010101;}
</style>
<g>
	<g transform="translate(-10.000000, -14.000000)">
		<g transform="translate(10.000000, 14.000000)">
			<path class="st0" d="M26.49,33.76C26.27,33.92,26.02,34,25.76,34s-0.51-0.08-0.73-0.24c-2.01-1.5-7.56-5.79-8.87-8.26
				c-1.61-3.03-0.66-6.9,2.14-8.65c0.92-0.57,1.92-0.85,2.91-0.85c1.73,0,3.43,0.84,4.56,2.36c1.13-1.52,2.82-2.36,4.56-2.36
				c0.99,0,1.99,0.27,2.91,0.85c2.79,1.75,3.75,5.62,2.14,8.65C34.05,27.97,28.49,32.26,26.49,33.76z M32.77,17.58
				c-0.75-0.47-1.6-0.72-2.45-0.72c-1.51,0-2.91,0.73-3.86,2.01l-0.69,0.94l-0.69-0.94c-0.95-1.28-2.36-2.01-3.86-2.01
				c-0.85,0-1.7,0.25-2.45,0.72c-2.41,1.51-3.23,4.88-1.83,7.5c1.25,2.34,6.92,6.7,8.63,7.97c0.08,0.06,0.16,0.07,0.21,0.07
				s0.13-0.01,0.21-0.07c1.71-1.28,7.38-5.63,8.63-7.97C36,22.46,35.18,19.09,32.77,17.58z"/>
		</g>
	</g>
</g>
</svg>
