<?xml version="1.0" encoding="utf-8"?>
<!-- Generator: Adobe Illustrator 25.2.1, SVG Export Plug-In . SVG Version: 6.00 Build 0)  -->
<svg version="1.1" id="Layer_1" xmlns="http://www.w3.org/2000/svg" xmlns:xlink="http://www.w3.org/1999/xlink" x="0px" y="0px"
	 viewBox="0 0 50 50" style="enable-background:new 0 0 50 50;" xml:space="preserve">
<style type="text/css">
	.st0{fill:#010101;}
</style>
<path class="st0" d="M18.7,24.06h12.49c0.26,0,0.48,0.21,0.48,0.48v0.16c0,0.26-0.21,0.48-0.48,0.48H18.7
	c-0.26,0-0.48-0.21-0.48-0.48v-0.16C18.22,24.28,18.43,24.06,18.7,24.06z"/>
<path class="st0" d="M17.14,16.92h15.59c0.26,0,0.48,0.21,0.48,0.48v0.16c0,0.26-0.21,0.48-0.48,0.48H17.14
	c-0.26,0-0.48-0.21-0.48-0.48V17.4C16.67,17.13,16.88,16.92,17.14,16.92z"/>
<path class="st0" d="M17.14,31.21h15.59c0.26,0,0.48,0.21,0.48,0.48v0.16c0,0.26-0.21,0.48-0.48,0.48H17.14
	c-0.26,0-0.48-0.21-0.48-0.48v-0.16C16.67,31.42,16.88,31.21,17.14,31.21z"/>
</svg>
