<?xml version="1.0" encoding="utf-8"?>
<!-- Generator: Adobe Illustrator 25.2.1, SVG Export Plug-In . SVG Version: 6.00 Build 0)  -->
<svg version="1.1" id="Layer_1" xmlns="http://www.w3.org/2000/svg" xmlns:xlink="http://www.w3.org/1999/xlink" x="0px" y="0px"
	 viewBox="0 0 50 50" style="enable-background:new 0 0 50 50;" xml:space="preserve">
<style type="text/css">
	.st0{fill:#010101;}
</style>
<g>
	<path class="st0" d="M24.34,36.04c-0.18,0-0.35-0.06-0.48-0.18c-0.3-0.27-7.5-6.71-7.5-12.88c0-4.41,3.57-7.98,7.98-7.98
		s7.98,3.57,7.98,7.98c0,6.17-7.2,12.61-7.5,12.88C24.68,35.98,24.51,36.04,24.34,36.04z M24.34,15.93c-3.85,0-6.97,3.12-6.97,6.97
		c0,5.03,5.28,10.45,6.97,12.1c1.69-1.65,6.97-7.07,6.97-12.1C31.3,19.05,28.18,15.93,24.34,15.93z"/>
	<path class="st0" d="M24.34,26.64c-2,0-3.63-1.62-3.63-3.63s1.62-3.63,3.63-3.63s3.63,1.62,3.63,3.63S26.34,26.64,24.34,26.64z
		 M24.38,20.44c-1.45,0-2.62,1.17-2.62,2.62c0,1.45,1.17,2.62,2.62,2.62S27,24.51,27,23.06C27,21.61,25.83,20.44,24.38,20.44
		C24.38,20.44,24.38,20.44,24.38,20.44z"/>
</g>
</svg>
