<?xml version="1.0" encoding="utf-8"?>
<!-- Generator: Adobe Illustrator 25.2.1, SVG Export Plug-In . SVG Version: 6.00 Build 0)  -->
<svg version="1.1" id="Layer_1" xmlns="http://www.w3.org/2000/svg" xmlns:xlink="http://www.w3.org/1999/xlink" x="0px" y="0px"
	 viewBox="0 0 50 50" style="enable-background:new 0 0 50 50;" xml:space="preserve">
<style type="text/css">
	.st0{fill:#010101;}
</style>
<g>
	<path class="st0" d="M24.97,35c-0.18,0-0.35-0.06-0.48-0.18c-0.3-0.27-7.5-6.71-7.5-12.88c0-4.41,3.57-7.98,7.98-7.98
		s7.98,3.57,7.98,7.98c0,6.17-7.2,12.61-7.5,12.88C25.31,34.93,25.14,35,24.97,35z M24.97,14.88C21.12,14.88,18,18,18,21.85
		c0,5.03,5.28,10.45,6.97,12.1c1.69-1.65,6.97-7.07,6.97-12.1C31.93,18,28.81,14.88,24.97,14.88z"/>
	<path class="st0" d="M24.97,25.59c-2,0-3.63-1.62-3.63-3.63s1.62-3.63,3.63-3.63s3.63,1.62,3.63,3.63S26.97,25.59,24.97,25.59z
		 M25.01,19.39c-1.45,0-2.62,1.17-2.62,2.62s1.17,2.62,2.62,2.62c1.45,0,2.62-1.17,2.62-2.62S26.46,19.39,25.01,19.39
		C25.01,19.39,25.01,19.39,25.01,19.39z"/>
</g>
</svg>
