<svg id="Layer_1" data-name="Layer 1" xmlns="http://www.w3.org/2000/svg" viewBox="0 0 18.19 23.82"><defs><style>.cls-1{fill:#61c195;stroke:#61c195;stroke-miterlimit:10;stroke-width:0.5px;}</style></defs><path class="cls-1" d="M11.67,23.7a.81.81,0,0,1-.53-.2c-.34-.3-8.31-7.44-8.31-14.27a8.85,8.85,0,1,1,17.69,0c0,6.83-8,14-8.32,14.27A.78.78,0,0,1,11.67,23.7Zm0-22.29A7.72,7.72,0,0,0,4,9.13c0,5.58,5.85,11.58,7.72,13.41,1.87-1.83,7.72-7.83,7.72-13.41A7.71,7.71,0,0,0,11.67,1.41Z" transform="translate(-2.58 -0.13)"/><path class="cls-1" d="M11.67,13.28a4,4,0,1,1,4-4A4,4,0,0,1,11.67,13.28Zm.05-6.87a2.91,2.91,0,1,0,2.91,2.9,2.9,2.9,0,0,0-2.91-2.9Z" transform="translate(-2.58 -0.13)"/></svg>