<?xml version="1.0" encoding="utf-8"?>
<!-- Generator: Adobe Illustrator 25.2.3, SVG Export Plug-In . SVG Version: 6.00 Build 0)  -->
<svg version="1.1" id="Layer_1" xmlns="http://www.w3.org/2000/svg" xmlns:xlink="http://www.w3.org/1999/xlink" x="0px" y="0px"
	 viewBox="0 0 72 90" style="enable-background:new 0 0 72 90;" xml:space="preserve">
<g>
	<path d="M68,14.9L57.1,4c-1.3-1.3-3.7-1.3-5,0L10.5,45.6c0,0,0,0.1-0.1,0.1c-0.1,0.1-0.1,0.2-0.1,0.2c0,0,0,0,0,0.1L3,67.7
		c-0.1,0.4,0,0.8,0.2,1C3.5,68.9,3.7,69,4,69c0.1,0,0.2,0,0.3-0.1L26,61.7c0.1,0,0.2-0.1,0.4-0.2c0,0,0,0,0,0L68,19.9
		c0.7-0.7,1-1.6,1-2.5C69,16.4,68.6,15.5,68,14.9z M58.2,26.9l-13-13l2.2-2.2l13,13L58.2,26.9z M56.8,28.3L25.4,59.6l-4.5-1.3
		l-1.4-5.1c-0.1-0.3-0.4-0.6-0.7-0.7l-5.1-1.4l-1.3-4.5l31.4-31.4L56.8,28.3z M12,64.2c-0.5-1.3-1.7-3.5-4.3-4.4l3.4-10.2l0.7,2.5
		c0.1,0.3,0.4,0.6,0.7,0.7l5.1,1.4l1.4,5.1c0.1,0.3,0.4,0.6,0.7,0.7l2.5,0.7L12,64.2z M7.1,61.8c1.8,0.6,2.6,2.1,3,3.1l-4.6,1.5
		L7.1,61.8z M66.5,18.5l-4.8,4.8l-13-13l4.8-4.8c0.6-0.6,1.6-0.6,2.2,0l10.8,10.8c0.3,0.3,0.5,0.7,0.5,1.1S66.8,18.2,66.5,18.5z"/>
</g>
</svg>
