<svg id="Layer_1" data-name="Layer 1" xmlns="http://www.w3.org/2000/svg" viewBox="0 0 23.72 23.72"><defs><style>.cls-1{fill:#61c195;stroke:#61c195;stroke-miterlimit:10;stroke-width:0.5px;fill-rule:evenodd;}</style></defs><path class="cls-1" d="M8.52,11.13A3.48,3.48,0,1,1,12,14.61a3.48,3.48,0,0,1-3.48-3.48m11.4,7.6a9.39,9.39,0,0,0-5.1-4,4.62,4.62,0,1,0-5.64,0,9.39,9.39,0,0,0-5.1,4,10.4,10.4,0,1,1,15.84,0M12,22.4a10.79,10.79,0,0,1-7.19-2.75s0,0,.06-.07a8.26,8.26,0,0,1,14.26,0l.06.07A10.75,10.75,0,0,1,12,22.4m0-22A11.61,11.61,0,1,0,23.61,12,11.63,11.63,0,0,0,12,.39" transform="translate(-0.14 -0.14)"/></svg>