<?xml version="1.0" encoding="utf-8"?>
<!-- Generator: Adobe Illustrator 25.2.1, SVG Export Plug-In . SVG Version: 6.00 Build 0)  -->
<svg version="1.1" id="Layer_1" xmlns="http://www.w3.org/2000/svg" xmlns:xlink="http://www.w3.org/1999/xlink" x="0px" y="0px"
	 viewBox="0 0 50 50" style="enable-background:new 0 0 50 50;" xml:space="preserve">
<style type="text/css">
	.st0{fill-rule:evenodd;clip-rule:evenodd;fill:#010101;}
</style>
<path class="st0" d="M22.18,24.29c0-1.56,1.27-2.82,2.82-2.82c1.56,0,2.82,1.27,2.82,2.82c0,1.56-1.27,2.82-2.82,2.82
	C23.44,27.11,22.18,25.85,22.18,24.29 M31.42,30.45c-0.97-1.54-2.44-2.66-4.14-3.2c0.88-0.69,1.46-1.75,1.46-2.95
	c0-2.07-1.68-3.75-3.75-3.75c-2.07,0-3.75,1.68-3.75,3.75c0,1.2,0.58,2.27,1.46,2.95c-1.69,0.54-3.17,1.66-4.14,3.2
	c-1.25-1.47-2.01-3.37-2.01-5.45c0-4.65,3.78-8.43,8.43-8.43s8.43,3.78,8.43,8.43C33.43,27.08,32.67,28.98,31.42,30.45 M25,33.43
	c-2.24,0-4.28-0.85-5.83-2.23c0.01-0.02,0.04-0.03,0.05-0.05c1.2-2.05,3.41-3.32,5.78-3.32c2.37,0,4.58,1.27,5.78,3.32
	c0.01,0.02,0.03,0.04,0.05,0.06C29.28,32.58,27.24,33.43,25,33.43 M25,15.59c-5.19,0-9.41,4.22-9.41,9.41
	c0,5.19,4.22,9.41,9.41,9.41s9.41-4.22,9.41-9.41C34.41,19.81,30.19,15.59,25,15.59"/>
</svg>
