<?xml version="1.0" encoding="utf-8"?>
<!-- Generator: Adobe Illustrator 25.2.1, SVG Export Plug-In . SVG Version: 6.00 Build 0)  -->
<svg version="1.1" id="Layer_1" xmlns="http://www.w3.org/2000/svg" xmlns:xlink="http://www.w3.org/1999/xlink" x="0px" y="0px"
	 viewBox="0 0 50 50" style="enable-background:new 0 0 50 50;" xml:space="preserve">
<style type="text/css">
	.st0{fill:#010101;}
</style>
<path class="st0" d="M32.56,31.88l-3.93-3.93c0.97-1.13,1.57-2.6,1.57-4.2c0-3.55-2.89-6.44-6.44-6.44c-3.55,0-6.44,2.89-6.44,6.44
	s2.89,6.44,6.44,6.44c1.6,0,3.07-0.59,4.2-1.57l3.93,3.93c0.09,0.09,0.22,0.14,0.34,0.14s0.24-0.05,0.34-0.14
	C32.74,32.37,32.74,32.07,32.56,31.88z M23.75,29.23c-3.03,0-5.49-2.46-5.49-5.49s2.46-5.49,5.49-5.49s5.49,2.46,5.49,5.49
	S26.77,29.23,23.75,29.23z"/>
</svg>
